Coordinates
version=1
nRows=24
nColumns=38
inDegrees=no

Units are S.I. units (second, meters, Newtons, ...)
If the header above contains a line with 'inDegrees', this indicates whether rotational values are in degrees (yes) or radians (no).

endheader
time	pelvis_tilt	pelvis_list	pelvis_rotation	pelvis_tx	pelvis_ty	pelvis_tz	hip_flexion_r	hip_adduction_r	hip_rotation_r	knee_angle_r	ankle_angle_r	subtalar_angle_r	mtp_angle_r	hip_flexion_l	hip_adduction_l	hip_rotation_l	knee_angle_l	ankle_angle_l	subtalar_angle_l	mtp_angle_l	lumbar_extension	lumbar_bending	lumbar_rotation	arm_flex_r	arm_add_r	arm_rot_r	elbow_flex_r	pro_sup_r	wrist_flex_r	wrist_dev_r	arm_flex_l	arm_add_l	arm_rot_l	elbow_flex_l	pro_sup_l	wrist_flex_l	wrist_dev_l
21.21	3.02675	1.45937	-1.38744	0.743026	-0.441835	0.948521	-0.248774	0.0129443	-0.246797	0	-0.0687127	0	0	-0.244243	-0.0435239	-0.184374	0.0649833	0.0121997	0	0	-0.275207	0.00414986	-0.00659477	0.559621	-0.400424	0.435663	1.5728	0	0	0	0.419525	-0.260257	0.0288704	1.59999	0.860598	0	0
21.22	3.02221	1.45882	-1.38607	0.742972	-0.441785	0.948578	-0.248926	0.0124967	-0.244362	0	-0.0687701	0	0	-0.244589	-0.0432948	-0.187035	0.0663126	0.0127435	0	0	-0.274958	0.00398148	-0.00557897	0.563666	-0.400407	0.441038	1.56754	0	0	0	0.418283	-0.26142	0.0282303	1.59953	0.860265	0	0
21.23	3.01371	1.45832	-1.38059	0.742965	-0.441749	0.948587	-0.248926	0.0126624	-0.241934	0	-0.0686505	0	0	-0.245128	-0.043476	-0.18869	0.0669046	0.013219	0	0	-0.2746	0.00420383	-0.00437503	0.56756	-0.400372	0.445992	1.5629	0	0	0	0.417432	-0.262545	0.0276719	1.59894	0.859895	0	0
21.24	3.0062	1.4577	-1.37551	0.742898	-0.441764	0.948567	-0.249063	0.0128296	-0.240036	0	-0.0685833	0	0	-0.24577	-0.0436732	-0.188984	0.0674406	0.0137907	0	0	-0.274563	0.00447495	-0.00337343	0.57125	-0.400468	0.450263	1.55895	0	0	0	0.417025	-0.2635	0.0259141	1.5989	0.859976	0	0
21.25	-3.08596	1.43694	-1.56281	0.741479	-0.443326	0.952044	-0.273033	-0.0117569	-0.25075	0	-0.0699393	0	0	-0.262565	-0.0199904	-0.208071	0.0748582	0.00332333	0	0	-0.304809	-0.0170933	-0.0131284	0.581339	-0.397289	0.452188	1.55348	0	0	0	0.425996	-0.267149	0.0277101	1.59732	0.859671	0	0
21.26	3.00866	1.45557	-1.38177	0.742578	-0.442169	0.948764	-0.250598	0.0112566	-0.237737	0	-0.0693654	0	0	-0.246015	-0.0426208	-0.195531	0.0718742	0.0153768	0	0	-0.276195	0.00339006	-0.00252089	0.578476	-0.400106	0.457394	1.55193	0	0	0	0.417311	-0.265415	0.0241931	1.5979	0.85961	0	0
21.27	3.0073	1.45546	-1.38166	0.74239	-0.442378	0.948779	-0.250421	0.0108775	-0.236599	0	-0.0691681	0	0	-0.245189	-0.0423514	-0.197746	0.0737532	0.0165035	0	0	-0.275716	0.00298447	-0.00229051	0.581032	-0.399886	0.459719	1.54862	0	0	0	0.417257	-0.266236	0.0232248	1.59796	0.859715	0	0
21.28	3.00584	1.45456	-1.38108	0.742256	-0.44217	0.948721	-0.251122	0.0107279	-0.235547	0	-0.0690001	0	0	-0.245492	-0.0421494	-0.199568	0.0746441	0.0172762	0	0	-0.275782	0.00271376	-0.0022347	0.583219	-0.399482	0.461072	1.54469	0	0	0	0.417879	-0.267289	0.0243335	1.59751	0.85966	0	0
21.29	3.0045	1.45364	-1.38072	0.742061	-0.442281	0.948738	-0.251881	0.010507	-0.234489	0	-0.0689994	0	0	-0.246124	-0.0418715	-0.200876	0.0753328	0.0178662	0	0	-0.276005	0.00243963	-0.00212319	0.585114	-0.398843	0.461418	1.54035	0	0	0	0.418833	-0.268252	0.0271868	1.59634	0.859191	0	0
21.3	3.00307	1.45253	-1.38007	0.741795	-0.442785	0.948849	-0.252797	0.0103982	-0.233877	0	-0.0690006	0	0	-0.247004	-0.0416785	-0.201236	0.0760189	0.0183528	0	0	-0.276779	0.00234161	-0.0020571	0.587043	-0.398169	0.461452	1.53624	0	0	0	0.420418	-0.268972	0.0320906	1.59424	0.857829	0	0
21.31	3.00242	1.45087	-1.37909	0.741498	-0.442684	0.948812	-0.254333	0.010459	-0.23414	0	-0.0693028	0	0	-0.248261	-0.0416747	-0.201651	0.0762962	0.0192104	0	0	-0.277902	0.00244568	-0.0027883	0.588437	-0.397426	0.460788	1.53214	0	0	0	0.421973	-0.269216	0.0348478	1.59314	0.856439	0	0
21.32	3.0187	1.44387	-1.39423	0.741431	-0.443356	0.949062	-0.261953	0.0099857	-0.236206	0	-0.0683754	0	0	-0.255617	-0.0411194	-0.200204	0.0761498	0.0198887	0	0	-0.289444	-0.00116916	-0.0114861	0.596931	-0.392004	0.464421	1.52726	0	0	0	0.423417	-0.258757	-0.0751256	1.89028	0.856439	0	0
21.33	3.00196	1.44763	-1.37827	0.740889	-0.443334	0.948907	-0.257083	0.0104174	-0.234424	0	-0.069605	0	0	-0.251027	-0.0414673	-0.20091	0.0759942	0.0199816	0	0	-0.280738	0.00230302	-0.00425836	0.591454	-0.395533	0.458333	1.52367	0	0	0	0.424852	-0.269457	0.0359547	1.59335	0.855118	0	0
21.34	2.99942	1.44657	-1.37587	0.740622	-0.443689	0.948912	-0.257685	0.0105182	-0.234119	0	-0.0697085	0	0	-0.251838	-0.0415137	-0.200698	0.0757387	0.0204157	0	0	-0.281594	0.00237215	-0.00452451	0.592621	-0.394876	0.456912	1.51998	0	0	0	0.426459	-0.269113	0.0369037	1.59275	0.854836	0	0
21.35	2.99638	1.44511	-1.37279	0.740343	-0.444116	0.948935	-0.258624	0.0107845	-0.233804	0	-0.0700045	0	0	-0.252952	-0.0417696	-0.200549	0.0756035	0.0210737	0	0	-0.283001	0.00265135	-0.00509854	0.594169	-0.394107	0.455459	1.51659	0	0	0	0.428256	-0.268723	0.038135	1.59178	0.854696	0	0
21.36	2.99466	1.4436	-1.3709	0.74006	-0.444596	0.948954	-0.259618	0.0109036	-0.233705	0	-0.0700324	0	0	-0.254065	-0.0419682	-0.200501	0.0756677	0.0218636	0	0	-0.284539	0.00274424	-0.00600334	0.596028	-0.392932	0.453656	1.51261	0	0	0	0.430193	-0.268409	0.0392745	1.59065	0.854723	0	0
21.37	2.99482	1.44217	-1.37077	0.739753	-0.445123	0.948978	-0.260556	0.0107605	-0.233714	0	-0.0700679	0	0	-0.255071	-0.0418961	-0.200459	0.0755509	0.0223048	0	0	-0.28616	0.00262869	-0.00707774	0.597934	-0.391543	0.451637	1.5082	0	0	0	0.432357	-0.267539	0.0396978	1.58933	0.855034	0	0
21.38	2.99509	1.44069	-1.37077	0.739384	-0.446024	0.949088	-0.261467	0.010559	-0.233699	0	-0.0701115	0	0	-0.255982	-0.0416909	-0.199784	0.0755694	0.0223829	0	0	-0.288292	0.00265296	-0.00813217	0.600189	-0.390119	0.449834	1.50403	0	0	0	0.434624	-0.26624	0.0395114	1.58823	0.85557	0	0
21.39	2.99528	1.43909	-1.37032	0.739065	-0.446357	0.949065	-0.262436	0.0104687	-0.233903	0	-0.0703572	0	0	-0.256778	-0.0415808	-0.199632	0.075479	0.0227808	0	0	-0.290302	0.00266817	-0.00958984	0.602354	-0.388587	0.448274	1.49966	0	0	0	0.436715	-0.264614	0.0385799	1.58699	0.856325	0	0
21.4	2.91641	1.40554	-1.30097	0.740448	-0.448638	0.952601	-0.290439	0.0304932	-0.222884	0	-0.0831155	0	0	-0.290597	-0.0609473	-0.216267	0.0727497	0.021484	0	0	-0.329187	0.0196101	0.00288892	0.61756	-0.38989	0.450985	1.49633	0	0	0	0.448001	-0.262311	0.037764	1.5866	0.857678	0	0
21.41	2.99929	1.43817	-1.37161	0.738447	-0.447314	0.948956	-0.27172	0.0120839	-0.23412	0	-0.0715041	0	0	-0.257731	-0.0439074	-0.204172	0.0732986	0.026595	0	0	-0.291547	0.0017804	-0.0129743	0.607329	-0.385773	0.446266	1.49125	0	0	0	0.440593	-0.261121	0.0364777	1.58366	0.860786	0	0
21.42	2.9974	1.43685	-1.36956	0.73808	-0.448051	0.94901	-0.271895	0.0120216	-0.234256	0	-0.0713242	0	0	-0.258684	-0.0438487	-0.204057	0.0725674	0.0267545	0	0	-0.29346	0.00203714	-0.0136869	0.610342	-0.384771	0.446016	1.48683	0	0	0	0.442629	-0.259282	0.0355037	1.58197	0.862561	0	0
21.43	2.9965	1.43552	-1.36845	0.737693	-0.44885	0.949082	-0.272058	0.0118303	-0.23457	0	-0.0719941	0	0	-0.259687	-0.043586	-0.203502	0.0716123	0.0266252	0	0	-0.295486	0.00214215	-0.0146031	0.613724	-0.38374	0.446396	1.4822	0	0	0	0.444597	-0.257253	0.0340577	1.58037	0.864369	0	0
21.44	2.99465	1.43408	-1.36622	0.737283	-0.449708	0.949144	-0.272222	0.0118833	-0.23507	0	-0.0726482	0	0	-0.260476	-0.0435142	-0.202529	0.071051	0.0266661	0	0	-0.297676	0.00240118	-0.0156792	0.617381	-0.382843	0.44711	1.47761	0	0	0	0.446452	-0.254985	0.0319209	1.57905	0.866054	0	0
